<svg xmlns="http://www.w3.org/2000/svg" xmlns:xlink="http://www.w3.org/1999/xlink" viewBox="0 0 400 400" width="400" height="400" preserveAspectRatio="xMidYMid meet" style="width: 100%; height: 100%; transform: translate3d(0px, 0px, 0px); content-visibility: visible;"><defs><clipPath id="__lottie_element_1154"><rect width="400" height="400" x="0" y="0"></rect></clipPath></defs><g clip-path="url(#__lottie_element_1154)"><g transform="matrix(-1.3336944580078125,-0.0932610034942627,0.0932610034942627,-1.3336944580078125,448.08660888671875,485.3934631347656)" opacity="0.13443451824722039" style="display: block;"><path fill="rgb(255,0,0)" fill-opacity="1" d=" M200,86.65 C262.6,86.65 313.35,137.4 313.35,200 C313.35,262.6 262.6,313.35 200,313.35 C137.4,313.35 86.65,262.6 86.65,200 C86.65,137.4 137.4,86.65 200,86.65z"></path><g opacity="1" transform="matrix(1,0,0,1,200,200.00100708007812)"></g></g><g transform="matrix(-0.8978075981140137,-0.06278082728385925,0.06278082728385925,-0.8978075981140137,367.00531005859375,392.1195983886719)" opacity="1" style="display: block;"><path fill="rgb(255,0,0)" fill-opacity="1" d=" M200,86.65 C262.6,86.65 313.35,137.4 313.35,200 C313.35,262.6 262.6,313.35 200,313.35 C137.4,313.35 86.65,262.6 86.65,200 C86.65,137.4 137.4,86.65 200,86.65z"></path><g opacity="1" transform="matrix(1,0,0,1,200,200.00100708007812)"></g></g><g transform="matrix(1,0,0,1,0,0)" opacity="1" style="display: block;"><g opacity="1" transform="matrix(1,0,0,1,210.41700744628906,200.00100708007812)"><path fill="rgb(255,255,255)" fill-opacity="1" d=" M32.08700180053711,-4.330999851226807 C35.41999816894531,-2.4059998989105225 35.41999816894531,2.4059998989105225 32.08700180053711,4.330999851226807 C32.08700180053711,4.330999851226807 -27.920000076293945,38.9739990234375 -27.920000076293945,38.9739990234375 C-31.253000259399414,40.89899826049805 -35.41899871826172,38.49300003051758 -35.41899871826172,34.64400100708008 C-35.41899871826172,34.64400100708008 -35.41899871826172,-34.64400100708008 -35.41899871826172,-34.64400100708008 C-35.41899871826172,-38.49399948120117 -31.253000259399414,-40.89899826049805 -27.920000076293945,-38.974998474121094 C-27.920000076293945,-38.974998474121094 32.08700180053711,-4.330999851226807 32.08700180053711,-4.330999851226807z"></path></g></g></g></svg>