<?xml version="1.0" encoding="UTF-8"?>
<svg id="Layer_1" data-name="Layer 1" xmlns="http://www.w3.org/2000/svg" version="1.1" viewBox="0 0 108 38">
  <defs>
    <style>
      .cls-1 {
        fill: #c83551;
        stroke-width: 0px;
      }
    </style>
  </defs>
  <path class="cls-1" d="M70.52,23.67c0-3.52,0-7.05,0-10.57,0-.31.08-.41.39-.46,1.28-.19,2.56-.4,3.83-.62.33-.06.25.16.25.32,0,2.24,0,4.47,0,6.71,0,.77,0,.76.71.53,1.65-.53,3.33-.58,4.98-.03,1.97.66,3.21,2.08,3.85,4.01.78,2.37.87,4.79.03,7.17-.96,2.73-2.99,4.2-5.78,4.69-1.68.29-3.37.12-5.04-.09-.96-.12-1.92-.31-2.86-.55-.26-.07-.35-.16-.35-.45.01-3.56,0-7.11,0-10.67h0ZM74.99,27.59h0c0,1.25,0,2.5,0,3.76,0,.24.07.33.31.35.58.06,1.16.11,1.74.09,1.35-.03,2.39-.6,2.95-1.84.8-1.75.78-3.56.11-5.35-.33-.89-1.03-1.42-1.97-1.59-.99-.17-1.93,0-2.85.39-.21.09-.3.22-.29.45.01,1.24,0,2.48,0,3.72Z"/>
  <path class="cls-1" d="M49.44,28.78c-1.57,0-3.13,0-4.7,0-.32,0-.34.09-.28.36.29,1.18,1.07,1.88,2.16,2.28.89.32,1.82.36,2.75.31,1.19-.07,2.35-.25,3.47-.68.19-.07.22-.01.25.16.16,1.04.33,2.07.52,3.11.06.31-.11.39-.33.46-1.61.55-3.28.78-4.97.81-1.34.02-2.65-.13-3.91-.64-2.39-.96-3.82-2.74-4.33-5.24-.4-1.97-.37-3.94.38-5.84,1.12-2.82,3.19-4.46,6.21-4.76,2.12-.21,4.1.24,5.72,1.75,1.01.94,1.58,2.12,1.89,3.44.32,1.35.34,2.72.25,4.1-.02.32-.12.42-.46.42-1.54-.02-3.09,0-4.63,0h0ZM47.32,25.76h0c.77,0,1.54,0,2.31,0q.67,0,.55-.66c-.42-2.19-2.84-3.12-4.58-1.76-.7.55-.97,1.33-1.15,2.17-.05.24.02.26.22.26.88,0,1.76,0,2.65,0Z"/>
  <path class="cls-1" d="M30.74,29.72c.74-1.84,1.35-3.68,1.91-5.54.46-1.49.92-2.99,1.3-4.5.04-.17.12-.23.3-.22,1.36,0,2.73,0,4.09,0,.23,0,.27.06.21.27-.87,2.91-1.83,5.79-2.94,8.62-.87,2.22-1.81,4.4-2.85,6.54-.11.23-.24.3-.48.3-1.04-.01-2.08-.01-3.12,0-.23,0-.35-.06-.46-.28-1.34-2.73-2.5-5.53-3.55-8.38-.82-2.21-1.54-4.45-2.22-6.7-.09-.28-.06-.36.25-.35,1.35.02,2.71.02,4.06,0,.25,0,.34.08.4.31.86,3.19,1.83,6.35,2.93,9.46.06.16.12.32.19.49Z"/>
  <path class="cls-1" d="M57.97,27.74c0-2.37,0-4.74,0-7.11,0-.21.04-.31.26-.38,2.1-.68,4.23-1.14,6.45-1.06,1.09.04,2.16.19,3.21.48.21.06.3.12.25.39-.23,1.02-.43,2.05-.63,3.08-.04.21-.09.3-.35.23-.96-.24-1.94-.45-2.94-.41-.49.02-.98.08-1.46.16-.27.04-.34.16-.34.42,0,2.29,0,4.59,0,6.88,0,1.47-.01,2.93,0,4.39,0,.31-.09.37-.38.36-1.25-.02-2.51-.01-3.76,0-.25,0-.32-.06-.32-.31.01-2.37,0-4.74,0-7.11Z"/>
  <path class="cls-1" d="M63.71,13.69c0,1.1,0,2.19,0,3.29,0,.21-.04.32-.27.37-1.46.29-2.93.49-4.43.31-2.29-.28-3.5-2.6-2.38-4.57.51-.9,1.37-1.28,2.33-1.47,1.06-.2,2.11-.2,3.16.06.23.06.32.01.31-.24-.02-.47-.02-.94-.11-1.4-.18-.96-.99-1.59-2.06-1.62-.82-.03-1.64,0-2.41.31-.27.11-.32-.01-.35-.23-.14-.89-.14-.9.75-1.08.94-.19,1.89-.23,2.83-.08,1.48.23,2.47,1.38,2.59,2.99.04.57.03,1.14.03,1.71,0,.56,0,1.12,0,1.68ZM62.43,14.59s0,0,0,0c0-.47-.02-.94,0-1.41.01-.27-.09-.37-.33-.44-.99-.26-1.99-.27-2.99-.04-.98.23-1.54.95-1.52,1.86.03,1.09.5,1.68,1.6,1.9,1.01.2,2.02.09,3.03-.04.21-.03.2-.17.2-.32,0-.5,0-1.01,0-1.51Z"/>
  <path class="cls-1" d="M31.51,12.49c.01-1.49.36-2.86,1.44-3.96,2.11-2.16,5.84-1.58,7.14,1.13.9,1.87.91,3.81-.02,5.66-.9,1.79-2.46,2.55-4.43,2.36-1.89-.18-3.12-1.27-3.77-3.03-.26-.7-.35-1.43-.35-2.17ZM39.36,12.52c-.02-.8-.11-1.58-.46-2.32-.5-1.06-1.32-1.71-2.51-1.8-1.21-.09-2.23.31-2.84,1.4-.96,1.71-.99,3.51-.08,5.23,1.11,2.08,4.02,2.08,5.25.06.48-.79.6-1.67.64-2.57Z"/>
  <path class="cls-1" d="M25.66,17.7c-.89.04-1.75-.11-2.58-.44-.2-.08-.26-.16-.19-.37.1-.27.09-.66.27-.81.21-.17.51.13.78.21,1.07.29,2.13.38,3.21.08.6-.17,1.06-.49,1.14-1.16.08-.67-.16-1.2-.76-1.55-.69-.4-1.44-.65-2.16-.98-.43-.2-.86-.38-1.25-.64-.87-.58-1.23-1.39-1.11-2.41.11-.97.66-1.65,1.52-2.01,1.46-.61,2.95-.47,4.42.04.13.04.17.11.13.25-.07.25-.13.5-.19.75-.04.2-.12.24-.32.15-.9-.41-1.85-.49-2.82-.34-.66.1-1.23.37-1.42,1.09-.14.54,0,1.02.43,1.39.44.39.98.57,1.5.8.64.28,1.31.51,1.93.85,1.62.9,1.71,2.58,1.1,3.68-.43.79-1.2,1.1-2.02,1.3-.52.12-1.06.16-1.61.13Z"/>
  <path class="cls-1" d="M42.85,12.65c0-1.28.21-2.38.83-3.39.77-1.24,1.9-1.9,3.34-2.01.93-.07,1.85,0,2.75.3.29.09.42.21.28.52-.1.22-.1.56-.26.67-.17.12-.44-.12-.68-.18-.77-.2-1.55-.24-2.32-.09-1.2.23-1.94,1-2.29,2.15-.37,1.22-.38,2.45-.03,3.67.4,1.41,1.57,2.23,3.12,2.28.77.02,1.52-.08,2.22-.4.21-.1.28-.03.31.16.02.12.06.24.08.36.13.51.13.52-.35.68-1.11.38-2.25.48-3.4.26-1.85-.36-3.07-1.65-3.44-3.58-.1-.49-.15-.99-.15-1.38Z"/>
  <path class="cls-1" d="M66.93,9.29c0-2.09,0-4.18,0-6.27,0-.32.1-.43.39-.46.23-.02.46-.07.69-.13.15-.03.21.02.2.16,0,.09,0,.18,0,.27,0,3.86,0,7.72,0,11.57,0,.28.01.56.02.84.03.81.31,1.16,1.12,1.29.28.04.36.15.3.41-.18.79.1.82-.89.67-1.07-.16-1.71-.88-1.79-1.98-.07-.99-.02-1.99-.03-2.98,0-1.13,0-2.26,0-3.39Z"/>
  <path class="cls-1" d="M53.67,12.47c0,1.58,0,3.15,0,4.73,0,.25-.07.34-.32.31-.31-.03-.71.13-.91-.06-.2-.19-.06-.59-.06-.9,0-2.92,0-5.84,0-8.75,0-.31.09-.39.38-.36.3.04.68-.12.87.07.17.18.05.55.05.84,0,1.37,0,2.75,0,4.12h0Z"/>
  <path class="cls-1" d="M53.95,4.39c0,.6-.36.97-.94.97-.55,0-.93-.39-.94-.95,0-.59.37-.99.93-.99.58,0,.95.37.95.97Z"/>
</svg>